<svg xmlns="http://www.w3.org/2000/svg" viewBox="0 0 180 180" width="180" height="180">
  <g transform="translate(-40,-50)">
    <rect x="40" y="50" width="180" height="180" rx="42" fill="#FFEFDD"/>
    <path d="M130 106 C 121 99, 117 92, 121 87 C 124 82.5, 129.5 84.5, 130 89 C 130.5 84.5, 136 82.5, 139 87 C 143 92, 139 99, 130 106 Z" fill="#F0A48A"/>
    <rect x="72" y="150" width="16" height="9" rx="4.5" fill="#C95B3F"/>
    <rect x="172" y="150" width="16" height="9" rx="4.5" fill="#C95B3F"/>
    <path d="M88 143 Q130 114 172 143 Z" fill="#C95B3F"/>
    <circle cx="130" cy="122" r="5.5" fill="#5C4033"/>
    <rect x="86" y="142" width="88" height="50" rx="15" fill="#E2725B"/>
    <rect x="86" y="142" width="88" height="7" fill="#C95B3F"/>
  </g>
</svg>
